# xmcd CD database file
#
# Track frame offsets:
#	150
#	19962
#	38825
#
# Disc length: 757 seconds
#
# Revision: 0
# Processed by: cddbd v1.5.1PL0 Copyright (c) Steve Scherf et al.
# Submitted via: CDex 1.51
#
DISCID=1d02f303
DTITLE=sona - Love,Again
DYEAR=1900
DGENRE=ポップ (一般)
TTITLE0=Love,Again
TTITLE1=STARRY
TTITLE2=Love,Again piano ver.
EXTD=
EXTT0=
EXTT1=
EXTT2=
PLAYORDER=
